<?xml version="1.0" encoding="UTF-8"?>
<svg id="Ebene_2_Kopie_Kopie" data-name="Ebene 2 Kopie Kopie" xmlns="http://www.w3.org/2000/svg" viewBox="0 0 844.18586 317.25809">
  <defs>
    <style>
      .cls-1 {
        fill: #c9d1d9;
      }
    </style>
  </defs>
  <path class="cls-1" d="m483.14238,166.95612c-6.29677-5.86374-15.20328-10.20753-26.3825-12.88784-.43304-.10994-2.18246-.50841-2.65102-.61355l-35.34181-7.80759-.14787-.03313c-.39751-.08834-1.2487-.27749-1.49738-.3375-.03793-.00864-.07537-.01776-.1133-.02592-8.90939-1.98995-15.87875-4.82628-20.71991-8.43458-3.99093-2.96787-5.8839-6.71012-5.95783-11.78124-.00288-.19731-.00336-.39415-.00144-.5857.03841-3.74801.88671-7.01306,2.59437-9.98333,1.7379-3.02548,4.33659-5.74228,7.7255-8.07548,3.67648-2.53196,8.13501-4.51518,13.25222-5.89446,5.30348-1.43065,11.32084-2.15605,17.88262-2.15605,8.18926,0,16.48318,1.56891,24.65708,4.66497l.49161.18819c8.35441,3.22808,16.43325,7.75815,24.01377,13.46442,3.07445,2.31448,7.44129,1.69757,9.75721-1.37592,2.314-3.07445,1.69757-7.44273-1.37688-9.75721-8.60693-6.48016-17.81589-11.6377-27.37531-15.33146l-.57994-.2218c-9.75049-3.69376-19.7055-5.56609-29.58753-5.56609-7.78695,0-15.02469.88671-21.51061,2.63614-6.64771,1.79215-12.54506,4.44077-17.52784,7.87193-5.11673,3.52333-9.12254,7.76679-11.90463,12.60987-2.88722,5.02263-4.38316,10.66937-4.44653,16.78851-.00288.31205-.00192.62315.0024.9304.13634,9.3573,4.13928,17.22635,11.57001,22.75211,6.41055,4.77731,15.14471,8.4269,25.96194,10.84748.35334.08305,1.23285.27941,1.66061.37495l35.494,7.84168c.38215.08545,1.86848.42151,2.33897.53961,8.9017,2.13541,15.7064,5.35005,20.22111,9.55558,4.16136,3.87715,6.2094,8.46483,6.26317,13.99251v.50409c-.06337,9.09182-3.83202,16.19609-11.52296,21.72185-8.36305,6.00968-19.8476,9.05629-34.13488,9.05629-10.25842,0-19.85865-1.66973-28.53087-4.9631-.36822-.14018-.73405-.28229-1.09699-.42727-8.46243-3.37787-15.6536-8.03467-21.37283-13.84272-2.70047-2.74128-7.11243-2.77584-9.85371-.07489-2.74176,2.69999-2.77536,7.11099-.07537,9.85323,7.07979,7.18877,15.87299,12.9104,26.13621,17.00743.43496.17379.87183.34278,1.31351.51081,10.26034,3.89636,21.52405,5.87238,33.48005,5.87238,17.26476,0,31.48578-3.92804,42.26653-11.67563,11.40102-8.19118,17.23115-19.27438,17.32621-32.92123.00288-.22948.00192-.45992,0-.72397-.09122-9.45092-3.69088-17.55473-10.69914-24.08674Z"/>
  <path class="cls-1" d="m644.34955,104.58034c-6.0865-6.29629-13.3588-11.28484-21.62199-14.82929-8.28816-3.54734-17.35693-5.34621-26.95284-5.34621-10.79995,0-20.63974,1.9621-29.25051,5.83445-8.60693,3.87619-16.0367,9.3165-22.08191,16.17017-5.98088,6.7831-10.65305,14.87106-13.88401,24.03393-2.91219,8.24015-4.60784,17.2009-5.03703,26.60141-.05857,1.16804-.07201,4.22377-.07201,4.64433,0,10.05246,1.65245,19.70502,4.91029,28.6893,3.30105,9.1091,8.15277,17.14858,14.41978,23.89279,6.26893,6.75573,13.93586,12.18067,22.78667,16.12504,8.88346,3.95973,18.95945,5.96744,29.94856,5.96744,14.32088,0,27.02869-3.14359,37.76911-9.34242,10.68857-6.16715,18.86055-13.80624,24.28645-22.70506,2.00387-3.28473.96497-7.57283-2.32072-9.57574-3.28473-2.00387-7.57187-.96401-9.57574,2.32072-4.19785,6.88247-10.7097,12.90176-19.35504,17.89078-8.59637,4.96118-18.95945,7.47586-30.80406,7.47586-9.02173,0-17.1889-1.60156-24.27589-4.75955-7.12348-3.17431-13.26182-7.50658-18.24797-12.87967-4.98999-5.37021-8.86906-11.81581-11.52968-19.15916-2.12389-5.85702-3.42587-12.08274-3.88675-18.5677h117.23634c3.80226,0,6.894-3.04565,6.96601-6.83063l.01824-.59578c.06625-2.21798.12866-4.38268.12866-5.19546,0-9.84987-1.75999-19.15052-5.23099-27.64704-3.46332-8.46723-8.28816-15.93973-14.34297-22.21249Zm-104.58038,48.5465c.62699-6.37263,1.94338-12.42312,3.92996-18.04393,2.63566-7.4749,6.40239-14.02083,11.19458-19.45634,4.72594-5.35725,10.56375-9.62375,17.34925-12.67948,6.79798-3.05717,14.71551-4.60736,23.53176-4.60736,7.70054,0,14.92387,1.42057,21.46452,4.22041,6.54738,2.80849,12.29781,6.74709,17.08808,11.70155,4.81812,4.99191,8.67607,10.98287,11.46631,17.80437,2.63086,6.43984,4.03558,13.51915,4.18153,21.06077h-110.206Z"/>
  <path class="cls-1" d="m828.13119,219.52812h-66.24957V11.05387c0-3.84835-3.11958-6.96745-6.96793-6.96745h-62.48572c-3.84835,0-6.96793,3.1191-6.96793,6.96745,0,3.84787,3.11958,6.96745,6.96793,6.96745h55.51779v201.5068h-56.96764c-3.84835,0-6.96793,3.11958-6.96793,6.96793s3.11958,6.96793,6.96793,6.96793h137.15307c3.84835,0,6.96793-3.11958,6.96793-6.96793s-3.11958-6.96793-6.96793-6.96793Z"/>
  <path class="cls-1" d="m141.37829,85.56472c-3.84835,0-6.96745,3.11958-6.96745,6.96745v22.88905c-13.05244-18.794-34.04961-31.01638-57.69449-31.01638-39.49693,0-71.62987,34.08399-71.62987,75.97942s32.13293,75.97942,71.62987,75.97942c23.64488,0,44.64204-12.22238,57.69449-31.01638v22.88857c0,3.84835,3.1191,6.96793,6.96745,6.96793s6.96745-3.11958,6.96745-6.96793V92.53217c0-3.84787-3.1191-6.96745-6.96745-6.96745Zm-64.66194,136.8631c-31.8132,0-57.69497-27.83235-57.69497-62.04356s25.88177-62.04452,57.69497-62.04452,57.69449,27.83331,57.69449,62.04452-25.88177,62.04356-57.69449,62.04356Z"/>
  <path class="cls-1" d="m339.67333,116.15611c-1.98658-6.97945-4.87429-12.87631-8.58293-17.52784-3.74417-4.69521-8.10909-8.26655-12.97569-10.6156-4.96406-2.39418-10.35732-3.60783-16.03142-3.60783-5.59729,0-10.91997,1.10851-15.8173,3.29385-4.78979,2.13493-9.06157,5.3923-12.69628,9.68088-2.05056,2.41944-3.84145,5.12183-5.36919,8.08046-1.3944-2.88008-3.00418-5.50956-4.8345-7.8505-3.43212-4.41773-7.46049-7.76727-11.97184-9.95501-4.44509-2.15653-9.244-3.24968-14.26279-3.24968-5.61409,0-10.88157,1.16036-15.6584,3.4494-4.77587,2.29144-9.08126,5.62034-12.78798,9.88395-.58444.66948-1.1468,1.3695-1.69757,2.0847v-7.33777c0-3.84787-3.1191-6.96745-6.96745-6.96745s-6.96745,3.11958-6.96745,6.96745v135.7037c0,3.84835,3.1191,6.96793,6.96745,6.96793s6.96745-3.11958,6.96745-6.96793v-79.99694l1.96786-14.45177c.91264-6.98377,2.49067-13.0285,4.69185-17.97048,1.51898-3.41579,3.38171-6.39951,5.54544-8.87866,2.46091-2.83057,5.25595-5.00823,8.30592-6.47104,2.91987-1.39992,6.07065-2.0802,9.63287-2.0802,2.93523,0,5.61073.60635,8.1811,1.85312,2.60589,1.26358,4.91221,3.2156,7.06251,5.98328,2.68751,3.4374,4.75474,7.90361,6.14411,13.27526l.42871,1.6342c.97937,3.7072,1.90545,7.21181,2.19542,11.67563v95.49097c0,3.84835,3.1191,6.96793,6.96745,6.96793s6.96745-3.11958,6.96745-6.96793v-95.61117c.06835-4.28648,1.15406-8.10771,2.20406-11.80267.15843-.55738.31445-1.10755.4652-1.65053,1.42057-5.11625,3.59198-9.42211,6.45328-12.79854,2.30344-2.71775,4.83492-4.66833,7.74134-5.96359,3.14503-1.40376,6.4624-2.08596,10.14128-2.08596,3.61071,0,6.87431.72781,9.97565,2.22327,2.96739,1.43257,5.70531,3.7048,8.13597,6.75333,2.5526,3.2012,4.59632,7.45857,6.07497,12.6526,1.54971,5.45087,2.33561,12.12162,2.33561,19.82936l.03313,88.44046c.00144,3.84739,3.12006,6.96505,6.96745,6.96505h.0024c3.84835-.00192,6.96649-3.12246,6.96505-6.97081l-.03313-88.4371c0-8.99388-.96449-16.94694-2.86706-23.63978Z"/>
</svg>